<?xml version="1.0" encoding="UTF-8" standalone="no"?>
<!-- Created with Inkscape (http://www.inkscape.org/) -->

<svg
   xmlns:osb="http://www.openswatchbook.org/uri/2009/osb"
   xmlns:dc="http://purl.org/dc/elements/1.1/"
   xmlns:cc="http://creativecommons.org/ns#"
   xmlns:rdf="http://www.w3.org/1999/02/22-rdf-syntax-ns#"
   xmlns:svg="http://www.w3.org/2000/svg"
   xmlns="http://www.w3.org/2000/svg"
   xmlns:xlink="http://www.w3.org/1999/xlink"
   xmlns:sodipodi="http://sodipodi.sourceforge.net/DTD/sodipodi-0.dtd"
   xmlns:inkscape="http://www.inkscape.org/namespaces/inkscape"
   width="251.05836mm"
   height="107.33492mm"
   viewBox="0 0 251.05836 107.33492"
   version="1.1"
   id="svg8"
   inkscape:version="0.92.3 (2405546, 2018-03-11)"
   sodipodi:docname="logo-kyo-ryo-joe.svg">
  <defs
     id="defs2">
    <linearGradient
       id="linearGradient4736"
       osb:paint="solid">
      <stop
         style="stop-color:#ffffff;stop-opacity:1;"
         offset="0"
         id="stop4734" />
    </linearGradient>
    <linearGradient
       inkscape:collect="always"
       xlink:href="#linearGradient4736"
       id="linearGradient4738"
       x1="-190.97202"
       y1="272.845"
       x2="-76.141304"
       y2="272.845"
       gradientUnits="userSpaceOnUse" />
    <linearGradient
       inkscape:collect="always"
       xlink:href="#linearGradient4736"
       id="linearGradient4740"
       gradientUnits="userSpaceOnUse"
       x1="-190.97202"
       y1="272.845"
       x2="-76.141304"
       y2="272.845" />
    <linearGradient
       inkscape:collect="always"
       xlink:href="#linearGradient4736"
       id="linearGradient4742"
       gradientUnits="userSpaceOnUse"
       x1="-190.97202"
       y1="272.845"
       x2="-76.141304"
       y2="272.845" />
    <linearGradient
       inkscape:collect="always"
       xlink:href="#linearGradient4736"
       id="linearGradient4744"
       gradientUnits="userSpaceOnUse"
       x1="-190.97202"
       y1="272.845"
       x2="-76.141304"
       y2="272.845" />
    <linearGradient
       inkscape:collect="always"
       xlink:href="#linearGradient4736"
       id="linearGradient4746"
       gradientUnits="userSpaceOnUse"
       x1="-190.97202"
       y1="272.845"
       x2="-76.141304"
       y2="272.845" />
    <linearGradient
       inkscape:collect="always"
       xlink:href="#linearGradient4736"
       id="linearGradient4748"
       gradientUnits="userSpaceOnUse"
       x1="-190.97202"
       y1="272.845"
       x2="-76.141304"
       y2="272.845" />
    <linearGradient
       inkscape:collect="always"
       xlink:href="#linearGradient4736"
       id="linearGradient4750"
       gradientUnits="userSpaceOnUse"
       x1="-190.97202"
       y1="272.845"
       x2="-76.141304"
       y2="272.845" />
    <linearGradient
       inkscape:collect="always"
       xlink:href="#linearGradient4736"
       id="linearGradient4752"
       gradientUnits="userSpaceOnUse"
       x1="-190.97202"
       y1="272.845"
       x2="-76.141304"
       y2="272.845" />
    <linearGradient
       inkscape:collect="always"
       xlink:href="#linearGradient4736"
       id="linearGradient4754"
       gradientUnits="userSpaceOnUse"
       x1="-190.97202"
       y1="272.845"
       x2="-76.141304"
       y2="272.845" />
    <linearGradient
       inkscape:collect="always"
       xlink:href="#linearGradient4736"
       id="linearGradient4756"
       gradientUnits="userSpaceOnUse"
       x1="-190.97202"
       y1="272.845"
       x2="-76.141304"
       y2="272.845" />
    <linearGradient
       inkscape:collect="always"
       xlink:href="#linearGradient4736"
       id="linearGradient4758"
       gradientUnits="userSpaceOnUse"
       x1="-190.97202"
       y1="272.845"
       x2="-76.141304"
       y2="272.845" />
    <linearGradient
       inkscape:collect="always"
       xlink:href="#linearGradient4736"
       id="linearGradient4760"
       gradientUnits="userSpaceOnUse"
       x1="-190.97202"
       y1="272.845"
       x2="-76.141304"
       y2="272.845" />
  </defs>
  <sodipodi:namedview
     id="base"
     pagecolor="#ffffff"
     bordercolor="#666666"
     borderopacity="1.0"
     inkscape:pageopacity="0.0"
     inkscape:pageshadow="2"
     inkscape:zoom="0.35"
     inkscape:cx="-240.07512"
     inkscape:cy="718.84833"
     inkscape:document-units="mm"
     inkscape:current-layer="layer1"
     showgrid="false"
     fit-margin-top="12"
     fit-margin-left="12"
     fit-margin-right="12"
     fit-margin-bottom="12"
     inkscape:window-width="1920"
     inkscape:window-height="1026"
     inkscape:window-x="0"
     inkscape:window-y="0"
     inkscape:window-maximized="1" />
  <metadata
     id="metadata5">
    <rdf:RDF>
      <cc:Work
         rdf:about="">
        <dc:format>image/svg+xml</dc:format>
        <dc:type
           rdf:resource="http://purl.org/dc/dcmitype/StillImage" />
        <dc:title></dc:title>
      </cc:Work>
    </rdf:RDF>
  </metadata>
  <g
     inkscape:label="レイヤー 1"
     inkscape:groupmode="layer"
     id="layer1"
     transform="translate(-8.3353519,-325.4318)">
    <g
       id="g4775">
      <path
         transform="matrix(1.7465733,0,0,0.61798972,-29.649226,144.03978)"
         inkscape:transform-center-y="-11.596076"
         inkscape:transform-center-x="-9.6648148e-06"
         d="m 158.62085,425.52248 -65.001098,0 -65.001097,0 32.500547,-56.2926 32.500549,-56.2926 32.500549,56.2926 z"
         inkscape:randomized="0"
         inkscape:rounded="0"
         inkscape:flatsided="false"
         sodipodi:arg2="1.5707963"
         sodipodi:arg1="0.52359878"
         sodipodi:r2="37.5284"
         sodipodi:r1="75.056801"
         sodipodi:cy="387.99408"
         sodipodi:cx="93.619751"
         sodipodi:sides="3"
         id="path981"
         style="fill:#ff0000;fill-opacity:1;stroke:none;stroke-width:0.83645034;stroke-miterlimit:4;stroke-dasharray:none;stroke-opacity:1"
         sodipodi:type="star" />
      <g
         style="fill:#000000;fill-opacity:1;stroke:url(#linearGradient4738);stroke-width:1.00008678;stroke-miterlimit:4;stroke-dasharray:none"
         id="g971"
         transform="matrix(1.4365722,0,0,0.70716085,325.72701,197.52079)">
        <g
           id="g958"
           style="fill:#000000;fill-opacity:1;stroke:url(#linearGradient4746);stroke-width:1.00008678;stroke-miterlimit:4;stroke-dasharray:none;stroke-opacity:1">
          <path
             id="path937"
             transform="scale(0.26458333)"
             d="m -518.48242,990.91602 c -2.98849,0.0268 -6.04956,0.20203 -9.19922,0.52148 -28.7986,2.92082 -50.58709,18.4426 -63.2168,45.0371 -11.55073,24.3226 -13.18098,66.5936 -3.6289,94.0547 11.03123,31.7136 33.23125,53.623 60.09961,59.3125 7.99169,1.6923 21.6314,1.9 29.5664,0.4512 29.87033,-5.4539 55.67744,-33.5074 64.39258,-69.9961 6.98918,-29.2626 3.86368,-62.6146 -8.14648,-86.9199 -4.54874,-9.2054 -6.36878,-11.6782 -14.75196,-20.0567 -8.16204,-8.1575 -10.95157,-10.2402 -19.06054,-14.21678 -11.51818,-5.6484 -23.10458,-8.30381 -36.05469,-8.1875 z m 0.15039,84.46098 c 14.24039,0 21.54848,9.374 22.60547,29 0.9846,18.2827 -6.35512,36.7216 -16.72071,42.0097 -8.72719,4.4523 -16.16845,0.4467 -22.54296,-12.1328 -6.64974,-13.1227 -7.32968,-36.2638 -1.40625,-47.8769 3.80311,-7.4563 9.622,-11 18.06445,-11 z"
             style="fill:#000000;fill-opacity:1;stroke:url(#linearGradient4740);stroke-width:3.77985573;stroke-miterlimit:4;stroke-dasharray:none;stroke-opacity:1"
             inkscape:connector-curvature="0" />
          <path
             id="path933"
             d="m -182.14672,314.51402 c -1.52458,-0.14913 -5.11887,-0.64475 -5.72,-0.78874 -0.48395,-0.11592 -0.58511,-0.3939 -0.73965,-2.03254 -0.0985,-1.04404 -0.39531,-3.14841 -0.65966,-4.67637 -0.26435,-1.52797 -0.45543,-2.80983 -0.42461,-2.84859 0.0308,-0.0388 1.17525,0.22251 2.5432,0.58059 2.40177,0.62868 3.45311,0.76066 5.62495,0.70613 l 1.02111,-0.0256 -0.16661,-2.84427 c -0.0916,-1.56435 -0.34662,-6.11849 -0.56663,-10.12032 -0.54303,-9.8771 -1.10273,-16.20828 -2.39165,-27.05364 l -0.1808,-1.52136 h 11.18039 11.18039 l -0.17381,2.4474 c -0.53409,7.52055 -0.9944,20.05435 -1.13192,30.8216 l -0.15627,12.23462 -0.82182,0.61975 c -1.37521,1.03708 -4.15383,2.46969 -6.20288,3.19811 -3.49136,1.24114 -7.9667,1.71867 -12.21373,1.30326 z"
             style="fill:#000000;fill-opacity:1;stroke:url(#linearGradient4742);stroke-width:1.00008678;stroke-miterlimit:4;stroke-dasharray:none;stroke-opacity:1"
             inkscape:connector-curvature="0" />
          <path
             id="path931"
             d="m -110.9738,312.0083 c 0,-5.78256 -1.50128,-40.21479 -2.01441,-46.20079 l -0.16443,-1.91823 h 16.96442 16.96442 v 0.98718 c 0,1.06514 -0.9552,15.30544 -1.20422,17.95285 l -0.15143,1.60983 -2.42505,-0.33344 c -1.33378,-0.18338 -3.81483,-0.41637 -5.51344,-0.51775 l -3.08837,-0.18433 -0.16768,2.34752 c -0.0922,1.29113 -0.22022,2.67494 -0.28442,3.07512 l -0.11674,0.72761 h 5.83204 c 5.43336,0 5.82211,0.0316 5.68658,0.46302 -0.44588,1.41924 -1.19718,4.69147 -1.47767,6.43597 l -0.32226,2.0042 -1.22794,-0.2065 c -0.67537,-0.11357 -2.84769,-0.28905 -4.82739,-0.38995 l -3.59945,-0.18346 -0.15409,0.63471 c -0.0848,0.34909 -0.18349,2.00393 -0.21941,3.67742 -0.0536,2.49591 0.003,3.04268 0.31396,3.04255 2.72235,-0.001 9.47396,-0.4931 10.69584,-0.77935 0.87193,-0.20426 1.61729,-0.33941 1.65638,-0.30032 0.0391,0.0391 -0.33915,1.78631 -0.8405,3.88273 -0.50136,2.09643 -0.99209,4.25817 -1.09051,4.80387 l -0.17895,0.99219 h -14.52264 -14.52264 z"
             style="fill:#000000;fill-opacity:1;stroke:url(#linearGradient4744);stroke-width:1.00008678;stroke-miterlimit:4;stroke-dasharray:none;stroke-opacity:1"
             inkscape:connector-curvature="0" />
        </g>
        <g
           id="g953"
           transform="matrix(1.1017306,0,0,0.73201174,13.95984,88.711046)"
           style="fill:#000000;fill-opacity:1;stroke:url(#linearGradient4760);stroke-width:1.11363018;stroke-miterlimit:4;stroke-dasharray:none;stroke-opacity:1">
          <path
             id="path929"
             transform="scale(0.26458333)"
             d="m -480.91016,733.98828 c -2.3582,0.021 -4.79802,0.15873 -7.27929,0.41602 -14.37978,1.4911 -14.55447,1.56467 -13.89649,5.85742 0.30478,1.98822 1.03962,28.14025 1.63282,58.11523 0.59323,29.97502 1.33637,60.0125 1.65234,66.75 l 0.57422,12.25 h 12.87304 12.87305 l 0.27539,-15.25 0.27735,-15.25 2.87695,11 c 1.58298,6.05001 4.21825,14.72603 5.85547,19.2793 l 2.97656,8.27734 7.64453,-6.70703 c 4.2048,-3.68874 8.47101,-7.46194 9.47852,-8.38672 1.76579,-1.62081 1.69115,-1.96592 -2.07032,-9.57226 -2.14605,-4.33977 -5.39803,-11.82689 -7.2246,-16.63672 l -3.32032,-8.74414 2.78906,-2.75586 c 3.4201,-3.3775 7.82927,-12.56375 10.19922,-21.25391 2.43576,-8.9311 2.43684,-36.45713 0.002,-46.25 -3.30924,-13.30953 -11.35794,-24.61763 -20.13086,-28.2832 -4.63119,-1.9351 -10.98398,-2.91848 -18.0586,-2.85547 z m 11.04688,60.38867 c 5.243,0 8.43555,5.68215 8.43555,15.01758 0,6.54422 -1.81346,11.35082 -5.35938,14.21094 -4.38009,3.53295 -4.64062,2.75744 -4.64062,-13.72852 0,-13.40035 0.21077,-15.5 1.56445,-15.5 z"
             style="fill:#000000;fill-opacity:1;stroke:url(#linearGradient4748);stroke-width:4.20899582;stroke-miterlimit:4;stroke-dasharray:none;stroke-opacity:1"
             inkscape:connector-curvature="0" />
          <path
             id="path925"
             d="m -176.00892,229.16272 -1.61832,-4.82864 -0.0131,2.51354 c -0.007,1.38245 -0.0882,3.13862 -0.17993,3.9026 l -0.16684,1.38907 h -3.24069 -3.2407 l -0.1513,-6.41615 c -0.49873,-21.14859 -0.76102,-30.20704 -0.88394,-30.52736 -0.11447,-0.29832 0.64333,-0.36274 4.26673,-0.36274 h 4.40592 l -0.13188,0.85989 c -0.24002,1.56513 -0.39421,14.92956 -0.15949,13.82448 0.41244,-1.94182 1.80576,-10.2853 2.15397,-12.89843 0.18907,-1.41883 0.42232,-2.57969 0.51835,-2.57969 0.18083,0 6.39798,2.63491 6.53722,2.77057 0.0693,0.0675 -3.91955,15.52759 -5.25106,20.35212 l -0.50333,1.82374 0.93739,2.14501 c 0.51556,1.17976 1.63892,3.47446 2.49635,5.09934 l 1.55896,2.95434 -2.74528,2.40348 c -1.5099,1.32191 -2.796,2.40348 -2.858,2.40348 -0.062,0 -0.84098,-2.17289 -1.73105,-4.82865 z"
             style="fill:#000000;fill-opacity:1;stroke:url(#linearGradient4750);stroke-width:1.11363018;stroke-miterlimit:4;stroke-dasharray:none;stroke-opacity:1"
             inkscape:connector-curvature="0" />
          <path
             id="path923"
             transform="scale(0.26458333)"
             d="m -535.98828,731.37695 c -5.88284,0 -10.45898,2.17081 -14.87305,7.05664 -11.96353,13.24218 -18.03375,44.70646 -15.51953,80.44336 2.44433,34.74395 12.44523,58.22942 26.60156,62.47266 v 0.002 c 3.82568,1.14618 3.3718,1.14704 7.62891,-0.0351 8.06619,-2.24002 14.33382,-10.69511 19.61719,-26.46485 4.40738,-13.15513 6.19224,-24.80304 6.81836,-44.47461 1.51604,-47.63369 -10.50409,-79 -30.27344,-79 z m 0.11523,63.34571 c 0.6572,0.0262 1.33823,0.19523 2.03711,0.51367 3.88755,1.77124 5.55505,7.22811 6.14258,20.10742 0.57574,12.62192 -1.2442,24.79657 -4.55469,30.46484 -3.5608,6.09699 -7.08055,3.78893 -9.87109,-6.47461 -2.23578,-8.22311 -2.4761,-30.16106 -0.4082,-37.2832 1.41118,-4.86023 3.80642,-7.44187 6.65429,-7.32812 z"
             style="fill:#000000;fill-opacity:1;stroke:url(#linearGradient4752);stroke-width:4.20899582;stroke-miterlimit:4;stroke-dasharray:none;stroke-opacity:1"
             inkscape:connector-curvature="0" />
          <path
             id="path919"
             transform="scale(0.26458333)"
             d="m -340.52734,731.40234 c -3.41544,-0.0597 -7.00664,0.72657 -9.96875,2.29297 -8.76749,4.63635 -16.72909,20.97958 -20.06055,41.18164 -2.03683,12.35165 -1.71391,48.51199 0.54492,61 4.46714,24.69683 13.97865,43.01599 23.41016,45.08789 1.47012,0.32293 3.12379,0.71948 3.67383,0.88086 2.29719,0.67359 7.25303,-0.83715 10.88281,-3.3164 8.16725,-5.57851 15.72959,-23.15126 19.21484,-44.65235 2.15203,-13.27631 2.45227,-44.86609 0.54297,-57 -3.71452,-23.60609 -12.31331,-40.62355 -22.45703,-44.4414 -1.74889,-0.65825 -3.73394,-0.99738 -5.7832,-1.03321 z m -0.57618,63.20118 c 0.36109,0.017 0.734,0.0737 1.11719,0.16992 3.41862,0.85799 5.35646,5.02491 6.65821,14.3125 1.6809,11.99263 -0.25436,28.65442 -4.24415,36.54101 -5.40763,10.68911 -11.81156,-3.54598 -11.84179,-26.31836 -0.0209,-16.34843 2.89431,-24.96036 8.31054,-24.70507 z"
             style="fill:#000000;fill-opacity:1;stroke:url(#linearGradient4754);stroke-width:4.20899582;stroke-miterlimit:4;stroke-dasharray:none;stroke-opacity:1"
             inkscape:connector-curvature="0" />
          <path
             id="path915"
             d="m -162.25049,227.57522 c -0.041,-2.51023 -0.19317,-6.88019 -0.33821,-9.71101 -0.29007,-5.66134 -0.67239,-7.55821 -3.46879,-17.21034 -0.73781,-2.54661 -1.39993,-4.90104 -1.4714,-5.23206 l -0.12993,-0.60186 4.4378,0.0727 4.43781,0.0727 0.74881,4.36563 c 0.41185,2.40109 0.82715,4.87486 0.9229,5.49725 0.0958,0.6224 0.22772,1.078 0.29327,1.01245 0.16236,-0.16235 1.00673,-4.57465 1.37234,-7.17116 0.16392,-1.16417 0.36041,-2.50362 0.43664,-2.97656 l 0.1386,-0.8599 h 2.10467 c 1.15757,0 2.10468,0.1018 2.10468,0.22623 0,0.12442 -0.6001,2.41637 -1.33355,5.09323 -0.73345,2.67685 -1.79487,6.71247 -2.35871,8.96804 l -1.02515,4.10104 -0.28844,8.73125 c -0.15864,4.80219 -0.28785,9.05867 -0.28713,9.45886 l 0.001,0.7276 h -3.11151 -3.11152 z"
             style="fill:#000000;fill-opacity:1;stroke:url(#linearGradient4756);stroke-width:1.11363018;stroke-miterlimit:4;stroke-dasharray:none;stroke-opacity:1"
             inkscape:connector-curvature="0" />
          <path
             id="path911"
             d="m -110.70908,229.03043 c 8e-5,-1.70987 -0.12982,-5.96635 -0.28866,-9.45885 -0.28039,-6.16488 -0.32323,-6.48884 -1.46959,-11.1125 -1.05639,-4.26079 -3.20254,-11.9483 -3.67475,-13.16302 -0.16712,-0.42988 0.14206,-0.46302 4.31906,-0.46302 h 4.49907 l 0.2954,1.78594 c 0.16247,0.98226 0.61957,3.57161 1.01578,5.7541 l 0.72038,3.96816 0.48194,-2.51296 c 0.26507,-1.38212 0.69151,-3.9417 0.94765,-5.68795 l 0.46571,-3.175 2.1861,-0.0772 c 1.99609,-0.0705 2.17399,-0.036 2.04667,0.39687 -0.55896,1.90031 -2.70179,9.95391 -3.57564,13.43865 -1.01417,4.04437 -1.07397,4.51679 -1.33955,10.58334 -0.1529,3.4925 -0.27838,7.80851 -0.27885,9.59114 l -8.6e-4,3.24115 h -3.175 -3.175 z"
             style="fill:#000000;fill-opacity:1;stroke:url(#linearGradient4758);stroke-width:1.11363018;stroke-miterlimit:4;stroke-dasharray:none;stroke-opacity:1"
             inkscape:connector-curvature="0" />
        </g>
      </g>
    </g>
  </g>
</svg>
